{"title":"The Girl With The Dragon Tattoo 2011 CaM NEWSOURCE - INFERNO","uid":6960687,"size":1920252487,"categoryP":"video","categoryS":"movies","magnet":"?xt=urn:btih:02c6fa0993c37205b2506c8b69a012ffb8168861&amp;dn=The+Girl+With+The+Dragon+Tattoo+2011+CaM+NEWSOURCE+-+INFERNO&amp;tr=udp%3A%2F%2Ftracker.openbittorrent.com%3A80&amp;tr=udp%3A%2F%2Fopen.demonii.com%3A1337&amp;tr=udp%3A%2F%2Ftracker.coppersurfer.tk%3A6969&amp;tr=udp%3A%2F%2Fexodus.desync.com%3A6969","seeders":0,"leechers":1,"uploader":"HeroMaster","files":-1,"time":1326748285,"description":"The Girl With The Dragon Tattoo 2011 CaM NEW SOURCE - INFERNO\n &lt;a href=&quot;\nhttp://www.imdb.com/title/tt1568346/&quot; rel=&quot;nofollow&quot; target=&quot;_NEW&quot;&gt;\nhttp://www.imdb.com/title/tt1568346/&lt;/a&gt; \n\nThanx to a great friend 4 this  \n\nK here we go with a New Source\nVideo is pretty good for a cam but had a flicker\nwhich we removed as much as possible with out causing\nother issue's to arise, some scene's still have it.\nAnd throughout the movie you can see chairs\nin the bottom corners of the screen which couldn't\nbe cropped away without losing too much of the\nvideo.\nAudio is nice for a cam so left that alone.\nCheck sample and Enjoy!\n\nFormat                           : AVI\nFormat/Info                      : Audio Video Interleave\nFile size                        : 1.77 GiB\nDuration                         : 2h 32mn\nOverall bit rate                 : 1 655 Kbps\n\nVideo\nID                               : 0\nFormat                           : MPEG-4 Visual\nFormat profile                   : Advanced Simple@L5\nFormat settings, BVOP            : 2\nFormat settings, QPel            : No\nFormat settings, GMC             : No warppoints\nFormat settings, Matrix          : Default (H.263)\nMuxing mode                      : Packed bitstream\nCodec ID                         : XVID\nCodec ID/Hint                    : XviD\nDuration                         : 2h 32mn\nBit rate                         : 1 515 Kbps\nWidth                            : 672 pixels\nHeight                           : 352 pixels\nDisplay aspect ratio             : 1.909\nFrame rate                       : 29.970 fps\nColor space                      : YUV\nChroma subsampling               : 4:2:0\nBit depth                        : 8 bits\nScan type                        : Progressive\nCompression mode                 : Lossy\nBits/(Pixel*Frame)               : 0.214\nStream size                      : 1.62 GiB (92%)\nWriting library                  : XviD 64\n\nAudio\nID                               : 1\nFormat                           : MPEG Audio\nFormat version                   : Version 1\nFormat profile                   : Layer 3\nMode                             : Joint stereo\nMode extension                   : MS Stereo\nCodec ID                         : 55\nCodec ID/Hint                    : MP3\nDuration                         : 2h 32mn\nBit rate mode                    : Constant\nBit rate                         : 128 Kbps\nChannel(s)                       : 2 channels\nSampling rate                    : 48.0 KHz\nCompression mode                 : Lossy\nStream size                      : 140 MiB (8%)\nAlignment                        : Split accross interleaves\nInterleave, duration             : 33 ms (1.00 video frame)\nInterleave, preload duration     : 1000 ms\n\n\nPoster:\n\n &lt;a href=&quot;\nhttp://i.imgur.com/nPpmG.jpg&quot; rel=&quot;nofollow&quot; target=&quot;_NEW&quot;&gt;\nhttp://i.imgur.com/nPpmG.jpg&lt;/a&gt;\n\n\nScreens:\n\n &lt;a href=&quot;\nhttp://i.imgur.com/u2Qoq.png&quot; rel=&quot;nofollow&quot; target=&quot;_NEW&quot;&gt;\nhttp://i.imgur.com/u2Qoq.png&lt;/a&gt;\n\n &lt;a href=&quot;\nhttp://i.imgur.com/Zg2u8.png&quot; rel=&quot;nofollow&quot; target=&quot;_NEW&quot;&gt;\nhttp://i.imgur.com/Zg2u8.png&lt;/a&gt;\n\n &lt;a href=&quot;\nhttp://i.imgur.com/968O9.png&quot; rel=&quot;nofollow&quot; target=&quot;_NEW&quot;&gt;\nhttp://i.imgur.com/968O9.png&lt;/a&gt;\n\n\nENJOY!","torrent":{"xt":"urn:btih:02c6fa0993c37205b2506c8b69a012ffb8168861","amp;dn":"The+Girl+With+The+Dragon+Tattoo+2011+CaM+NEWSOURCE+-+INFERNO","amp;tr":["udp%3A%2F%2Ftracker.openbittorrent.com%3A80","udp%3A%2F%2Fopen.demonii.com%3A1337","udp%3A%2F%2Ftracker.coppersurfer.tk%3A6969","udp%3A%2F%2Fexodus.desync.com%3A6969"],"infoHash":"02c6fa0993c37205b2506c8b69a012ffb8168861","infoHashBuffer":{"type":"Buffer","data":[2,198,250,9,147,195,114,5,178,80,108,139,105,160,18,255,184,22,136,97]},"announce":[],"urlList":[]}}